<svg width="48" height="48" viewBox="0 0 48 48" fill="none" xmlns="http://www.w3.org/2000/svg">
<path d="M26.1465 30.459V34.083H21.8545V30.459H18.2715V40.5H29.7295V30.459H26.1465Z" fill="#9898AA"/>
<path d="M36.7484 34.083H34.9834V30.695V30.459H31.4004V40.5H40.0914L36.7484 34.083Z" fill="#9898AA"/>
<path d="M39.2742 30.459V34.083H38.3262L41.6692 40.5H42.8582V30.459H39.2742Z" fill="#9898AA"/>
<path d="M13.0176 30.459V34.083H8.72659V30.459H5.14258V40.5H16.6006V30.459H13.0176Z" fill="#9898AA"/>
<path d="M19.5566 18.6973V22.3223H15.2656V18.6973H11.6816V28.7393H23.1396V18.6973H19.5566Z" fill="#9898AA"/>
<path d="M40.561 42.2188H3.20703V45.0518H40.561V42.2188Z" fill="#9898AA"/>
<path d="M44.792 42.2188H42V45.0518H44.792V42.2188Z" fill="#9898AA"/>
<path d="M35.5422 28.7393H36.3182V18.6973H32.7342V22.3223H32.1992L35.5422 28.7393Z" fill="#9898AA"/>
<path d="M30.6204 22.3223H28.4424V18.6973H24.8594V28.7393H33.9634L30.6204 22.3223Z" fill="#9898AA"/>
<path d="M24.8181 8.15601H25.523V2.5H22.4751V8.15601H23.157L18.4141 17.261H19.9921L23.9871 9.591L27.9831 17.261H29.5611L24.8181 8.15601Z" fill="#9898AA"/>
</svg>
