<svg width="48" height="48" viewBox="0 0 48 48" fill="none" xmlns="http://www.w3.org/2000/svg">
<path d="M32.6408 34.5771C29.6228 34.5771 27.9828 33.3981 26.3958 32.2601L26.2638 32.1651C25.9268 31.9231 25.0298 31.3591 23.9998 31.3591C22.9698 31.3591 22.0738 31.9221 21.7358 32.1651L21.6038 32.2601C20.0178 33.3991 18.3768 34.5771 15.3588 34.5771C9.2288 34.5771 4.42578 29.9121 4.42578 23.9581C4.42578 17.9351 9.3298 13.0352 15.3588 13.0352H32.6398C38.6688 13.0352 43.5728 17.9351 43.5728 23.9581C43.5738 29.9121 38.7708 34.5771 32.6408 34.5771ZM23.9998 28.1392C25.8938 28.1392 27.4078 29.0222 28.1408 29.5471L28.2748 29.6441C29.7618 30.7111 30.6588 31.3562 32.6408 31.3562C36.9648 31.3562 40.3528 28.1072 40.3528 23.9592C40.3528 19.7122 36.8928 16.2572 32.6408 16.2572H15.3598C11.1078 16.2572 7.6478 19.7122 7.6478 23.9592C7.6478 28.1072 11.0358 31.3562 15.3598 31.3562C17.3408 31.3562 18.2388 30.7111 19.7258 29.6441L19.8588 29.5471C20.5918 29.0211 22.1058 28.1392 23.9998 28.1392Z" fill="#9898AA"/>
<path d="M32.6418 29.1592C31.3678 29.1592 30.9118 28.8312 29.5568 27.8582L29.4218 27.7622C28.4738 27.0812 26.5078 25.9412 24.0008 25.9412C21.4938 25.9412 19.5278 27.0822 18.5798 27.7622L18.4448 27.8582C17.0908 28.8312 16.6338 29.1592 15.3598 29.1592C12.2148 29.1592 9.84375 26.9232 9.84375 23.9572C9.84375 20.9212 12.3188 18.4512 15.3598 18.4512H32.6408C35.6828 18.4512 38.1568 20.9212 38.1568 23.9572C38.1578 26.9232 35.7868 29.1592 32.6418 29.1592Z" fill="#9898AA"/>
<path d="M25.4108 42.0229C25.4108 43.3649 24.3128 44.4629 22.9708 44.4629H18.8228C17.4808 44.4629 16.3828 43.3639 16.3828 42.0229V39.2779C16.3828 37.9359 17.4808 36.8379 18.8228 36.8379H22.9708C24.3128 36.8379 25.4108 37.9369 25.4108 39.2779V42.0229Z" fill="#9898AA"/>
<path d="M11.796 11.8468V5.90485C11.796 4.55685 10.703 3.46484 9.35602 3.46484C8.00902 3.46484 6.91602 4.55685 6.91602 5.90485V14.5858C8.30202 13.3368 9.95902 12.3878 11.796 11.8468Z" fill="#9898AA"/>
<path d="M18.7953 38.4049C15.8443 37.9749 14.1463 37.0779 13.1593 36.0939C10.7803 35.7009 8.65231 34.6859 6.94531 33.2129C7.25631 38.6039 11.2723 42.2419 18.0933 43.2339C18.2123 43.2519 18.3303 43.2599 18.4473 43.2599C19.6393 43.2599 20.6823 42.3849 20.8593 41.1699C21.0533 39.8369 20.1293 38.5989 18.7953 38.4049Z" fill="#9898AA"/>
</svg>
