<svg width="48" height="48" viewBox="0 0 48 48" fill="none" xmlns="http://www.w3.org/2000/svg">
<path d="M35.032 41.251L41.252 35.031L38.387 32.166C39.069 30.964 39.594 29.7 39.951 28.397H44V19.601H39.951C39.593 18.297 39.068 17.034 38.386 15.833L41.252 12.967L35.031 6.74699L32.166 9.61299C30.965 8.93099 29.701 8.40599 28.397 8.04799V4H19.601V8.04799C18.298 8.40599 17.035 8.93099 15.833 9.61299L12.968 6.74699L6.74701 12.967L9.61301 15.832C8.93001 17.033 8.406 18.296 8.048 19.6H4V28.396H8.04901C8.24601 29.117 8.498 29.826 8.793 30.519L13.572 25.741C13.031 22.486 14.008 19.028 16.517 16.516C20.65 12.384 27.349 12.384 31.482 16.516C35.614 20.648 35.614 27.348 31.482 31.48C28.97 33.992 25.511 34.967 22.255 34.425L17.477 39.204C18.171 39.499 18.88 39.751 19.601 39.948V43.998L28.397 43.997V39.948C29.701 39.591 30.964 39.066 32.167 38.384L35.032 41.251Z" fill="#9898AA"/>
<path d="M28.3714 28.3726C30.1234 26.6196 30.5974 24.0776 29.8064 21.8916L28.2824 23.4156L25.7244 25.9736L23.2774 24.7236L22.0274 22.2766L24.5864 19.7186L26.1094 18.1956C23.9234 17.4036 21.3804 17.8766 19.6284 19.6306C17.8414 21.4176 17.3814 24.0266 18.2394 26.2406L5.90839 38.5726C4.93939 39.5416 4.93939 41.1256 5.90839 42.0936C6.87639 43.0626 8.46039 43.0626 9.42939 42.0936L21.7614 29.7616C23.9754 30.6206 26.5834 30.1596 28.3714 28.3726Z" fill="#9898AA"/>
</svg>
