<svg width="48" height="48" viewBox="0 0 48 48" fill="none" xmlns="http://www.w3.org/2000/svg">
<path d="M43.957 14.832H41.624V39.708H32.4V37.048H29.859V39.708H24.624H19.389V37.048H16.848V39.708H7.62403V14.832H5.29103L3.08203 44.04H24.624H46.165L43.957 14.832Z" fill="#9898AA"/>
<path d="M24.625 12.25L9.875 20.458C12.583 25.958 14.792 35.125 14.792 35.125L24.625 38.25L34.459 35.125C34.459 35.125 36.666 25.959 39.375 20.458L24.625 12.25Z" fill="#9898AA"/>
<path d="M16.3466 11.725H24.6256H32.9046L33.0786 14.96L34.7716 15.902L34.4586 10.084H31.6556V8.73398V7.01598H29.9676H26.2866L25.9256 2.70898H23.3216L22.9606 7.01598H19.2796H17.5916V8.73498V10.085H14.7896L14.4766 15.903L16.1706 14.961L16.3466 11.725ZM19.2816 8.73398H24.6256H29.9696V10.084H24.6256H19.2816V8.73398Z" fill="#9898AA"/>
</svg>
