<svg width="44" height="44" viewBox="0 0 44 44" fill="none" xmlns="http://www.w3.org/2000/svg">
    <g clip-path="url(#clip0_2038_5712)">
        <path d="M19.4282 33.717C18.0882 33.419 16.8312 32.897 15.6972 32.193L13.5762 33.157C15.4082 34.544 17.5872 35.49 19.9592 35.842L21.9992 44V36V34V25L18.9992 32L19.4282 33.717Z" fill="#F28036"/>
        <path d="M13.0945 13.095L13.5185 13.519L19.8785 19.879L16.3425 12.101L15.6925 11.805C16.8275 11.103 18.0855 10.579 19.4285 10.284L19.9585 8.16602C17.5845 8.51502 15.4045 9.45801 13.5715 10.841L8.56445 8.56402L13.0945 13.095Z" fill="#F28036"/>
        <path d="M24.121 24.121L27.656 31.899L28.299 32.191C27.166 32.895 25.913 33.42 24.571 33.715L24.041 35.833C26.411 35.484 28.582 34.532 30.411 33.15L35.435 35.434L24.121 24.121Z" fill="#F28036"/>
        <path d="M24.57 10.283C25.911 10.581 27.168 11.103 28.301 11.807L30.421 10.843C28.589 9.456 26.41 8.51 24.038 8.158L22 0V8V10V19L25 12L24.57 10.283Z" fill="#F28036"/>
        <path d="M25 22L32 25L33.718 24.57C33.421 25.912 32.899 27.169 32.194 28.302L33.158 30.423C34.547 28.592 35.491 26.412 35.843 24.039L44 22H36H34H25Z" fill="#F28036"/>
        <path d="M19 22L12 19L10.283 19.43C10.581 18.089 11.104 16.832 11.807 15.699L10.843 13.578C9.457 15.411 8.511 17.59 8.159 19.961L0 22H8H10H19Z" fill="#F28036"/>
        <path d="M13.095 30.905L19.879 24.121L12.101 27.656L11.805 28.307C11.103 27.171 10.579 25.914 10.284 24.571L8.16602 24.041C8.51502 26.415 9.45801 28.596 10.841 30.429L8.56501 35.436L12.105 31.896L13.095 30.905Z" fill="#F28036"/>
        <path d="M30.9051 13.095L24.1211 19.879L31.8991 16.344L32.1951 15.693C32.8971 16.829 33.4211 18.086 33.7161 19.429L35.8341 19.959C35.4841 17.585 34.5411 15.404 33.1591 13.571L35.4351 8.56396L31.8941 12.104L30.9051 13.095Z" fill="#F28036"/>
    </g>
    <defs>
        <clipPath id="clip0_2038_5712">
            <rect width="44" height="44" fill="white"/>
        </clipPath>
    </defs>
</svg>
