<svg width="17" height="16" viewBox="0 0 17 16" fill="none" xmlns="http://www.w3.org/2000/svg">
    <path d="M16.8008 9.81879V15.8861H13.2492V10.1887C13.2492 8.78291 12.7313 7.82103 11.4734 7.82103C10.5115 7.82103 9.91962 8.48695 9.69764 9.07888C9.62365 9.30085 9.54966 9.59681 9.54966 9.96677V15.8861H5.99809C5.99809 15.8861 6.07208 6.26722 5.99809 5.30534H9.54966V6.78516C9.99361 6.04525 10.8815 5.00937 12.7313 5.00937C15.025 5.00937 16.8008 6.56318 16.8008 9.81879ZM2.29854 0.199951C1.11468 0.199951 0.300781 1.01385 0.300781 2.04973C0.300781 3.0856 1.04069 3.8995 2.22455 3.8995C3.4824 3.8995 4.22231 3.0856 4.22231 2.04973C4.2963 0.939862 3.55639 0.199951 2.29854 0.199951ZM0.522754 15.8861H4.07432V5.30534H0.522754V15.8861Z" fill="white"/>
</svg>
